<?xml version="1.0" encoding="UTF-8"?>
<svg xmlns="http://www.w3.org/2000/svg" xmlns:xlink="http://www.w3.org/1999/xlink" width="1280" height="720" viewBox="0 0 1280 720">
<defs>
<g>
<g id="glyph-0-0">
<path d="M 0.140625 -0.105469 C 0.320312 -0.128906 0.445312 -0.175781 0.519531 -0.242188 C 0.589844 -0.308594 0.625 -0.457031 0.625 -0.691406 L 0.625 -2.617188 C 0.625 -2.777344 0.613281 -2.890625 0.582031 -2.957031 C 0.535156 -3.054688 0.433594 -3.101562 0.285156 -3.101562 C 0.261719 -3.101562 0.238281 -3.101562 0.214844 -3.097656 C 0.191406 -3.097656 0.160156 -3.09375 0.125 -3.085938 L 0.125 -3.21875 C 0.230469 -3.25 0.476562 -3.328125 0.863281 -3.457031 L 1.21875 -3.574219 C 1.238281 -3.574219 1.246094 -3.566406 1.25 -3.554688 C 1.253906 -3.542969 1.257812 -3.523438 1.257812 -3.5 L 1.257812 -2.941406 C 1.488281 -3.160156 1.671875 -3.308594 1.804688 -3.390625 C 2 -3.515625 2.207031 -3.578125 2.417969 -3.578125 C 2.589844 -3.578125 2.75 -3.527344 2.890625 -3.429688 C 3.164062 -3.238281 3.300781 -2.894531 3.300781 -2.398438 L 3.300781 -0.625 C 3.300781 -0.445312 3.335938 -0.3125 3.410156 -0.230469 C 3.484375 -0.148438 3.605469 -0.109375 3.777344 -0.105469 L 3.777344 0 L 2.15625 0 L 2.15625 -0.105469 C 2.339844 -0.132812 2.472656 -0.183594 2.542969 -0.261719 C 2.617188 -0.335938 2.65625 -0.503906 2.65625 -0.761719 L 2.65625 -2.386719 C 2.65625 -2.601562 2.613281 -2.78125 2.53125 -2.925781 C 2.453125 -3.070312 2.300781 -3.140625 2.085938 -3.140625 C 1.9375 -3.140625 1.785156 -3.089844 1.628906 -2.988281 C 1.542969 -2.929688 1.433594 -2.835938 1.296875 -2.699219 L 1.296875 -0.574219 C 1.296875 -0.390625 1.335938 -0.269531 1.417969 -0.207031 C 1.496094 -0.144531 1.625 -0.113281 1.800781 -0.105469 L 1.800781 0 L 0.140625 0 Z "/>
</g>
<g id="glyph-0-1">
<rect x="0" y="0" width="0" height="0" mask="url(#mask-0)"/>
</g>
<g id="glyph-0-2">
<path d="M 4.160156 -1.445312 L 4.160156 -0.914062 L 0.230469 -0.914062 L 0.230469 -1.445312 Z M 4.160156 -3.015625 L 4.160156 -2.484375 L 0.230469 -2.484375 L 0.230469 -3.015625 Z "/>
</g>
<g id="glyph-0-3">
<path d="M 1.957031 -0.128906 C 2.246094 -0.128906 2.46875 -0.210938 2.617188 -0.371094 C 2.765625 -0.535156 2.839844 -0.738281 2.839844 -0.980469 C 2.839844 -1.257812 2.761719 -1.480469 2.601562 -1.648438 C 2.445312 -1.820312 2.121094 -2.078125 1.628906 -2.425781 C 1.410156 -2.289062 1.253906 -2.113281 1.15625 -1.894531 C 1.054688 -1.675781 1.007812 -1.46875 1.007812 -1.265625 C 1.007812 -0.917969 1.09375 -0.640625 1.273438 -0.4375 C 1.453125 -0.230469 1.679688 -0.128906 1.957031 -0.128906 Z M 2.003906 -3.03125 C 2.242188 -3.199219 2.40625 -3.339844 2.5 -3.453125 C 2.65625 -3.648438 2.734375 -3.882812 2.734375 -4.160156 C 2.734375 -4.398438 2.660156 -4.601562 2.511719 -4.773438 C 2.363281 -4.941406 2.140625 -5.023438 1.839844 -5.023438 C 1.605469 -5.023438 1.414062 -4.949219 1.261719 -4.804688 C 1.109375 -4.65625 1.03125 -4.480469 1.03125 -4.269531 C 1.03125 -4.03125 1.121094 -3.808594 1.300781 -3.605469 C 1.480469 -3.402344 1.714844 -3.210938 2.003906 -3.03125 Z M 1.421875 -2.589844 C 1.085938 -2.859375 0.859375 -3.070312 0.738281 -3.230469 C 0.550781 -3.472656 0.457031 -3.742188 0.457031 -4.035156 C 0.457031 -4.371094 0.59375 -4.65625 0.871094 -4.886719 C 1.148438 -5.121094 1.507812 -5.238281 1.953125 -5.238281 C 2.359375 -5.238281 2.683594 -5.125 2.925781 -4.90625 C 3.164062 -4.6875 3.285156 -4.429688 3.285156 -4.140625 C 3.285156 -3.84375 3.160156 -3.578125 2.917969 -3.34375 C 2.773438 -3.207031 2.546875 -3.054688 2.230469 -2.878906 C 2.660156 -2.558594 2.96875 -2.28125 3.152344 -2.046875 C 3.339844 -1.808594 3.433594 -1.527344 3.433594 -1.207031 C 3.433594 -0.84375 3.296875 -0.535156 3.019531 -0.289062 C 2.746094 -0.0390625 2.378906 0.0820312 1.917969 0.0820312 C 1.503906 0.0820312 1.152344 -0.03125 0.855469 -0.261719 C 0.5625 -0.488281 0.414062 -0.792969 0.414062 -1.164062 C 0.414062 -1.488281 0.515625 -1.769531 0.722656 -2.015625 C 0.855469 -2.175781 1.089844 -2.367188 1.421875 -2.589844 Z "/>
</g>
</g>
<image id="source-121" x="0" y="0" width="0" height="0"/>
<mask id="mask-0">
<use xlink:href="#source-121"/>
</mask>
</defs>
<g fill="rgb(100%, 100%, 100%)" fill-opacity="1">
<use xlink:href="#glyph-0-0" x="30" y="25.833008"/>
<use xlink:href="#glyph-0-1" x="34" y="25.833008"/>
<use xlink:href="#glyph-0-2" x="36" y="25.833008"/>
<use xlink:href="#glyph-0-1" x="40" y="25.833008"/>
<use xlink:href="#glyph-0-3" x="42" y="25.833008"/>
</g>
</svg>
