<?xml version="1.0" encoding="UTF-8"?>
<svg xmlns="http://www.w3.org/2000/svg" xmlns:xlink="http://www.w3.org/1999/xlink" width="1280" height="720" viewBox="0 0 1280 720">
<defs>
<g>
<g id="glyph-0-0">
<path d="M 0.0859375 -0.140625 C 0.410156 -0.171875 0.613281 -0.246094 0.707031 -0.359375 C 0.796875 -0.472656 0.84375 -0.734375 0.84375 -1.144531 L 0.84375 -4.300781 C 0.84375 -4.582031 0.796875 -4.765625 0.710938 -4.851562 C 0.621094 -4.9375 0.421875 -4.984375 0.105469 -5 L 0.105469 -5.144531 L 1.644531 -5.144531 L 3.445312 -1.222656 L 5.164062 -5.144531 L 6.714844 -5.144531 L 6.714844 -5 C 6.425781 -4.980469 6.238281 -4.929688 6.15625 -4.84375 C 6.074219 -4.757812 6.03125 -4.578125 6.03125 -4.300781 L 6.03125 -0.84375 C 6.03125 -0.558594 6.070312 -0.378906 6.15625 -0.296875 C 6.238281 -0.21875 6.425781 -0.164062 6.714844 -0.140625 L 6.714844 0 L 4.535156 0 L 4.535156 -0.140625 C 4.847656 -0.164062 5.042969 -0.222656 5.121094 -0.308594 C 5.199219 -0.398438 5.238281 -0.605469 5.238281 -0.933594 L 5.238281 -4.429688 L 3.246094 0 L 3.140625 0 L 1.183594 -4.246094 L 1.183594 -1.144531 C 1.183594 -0.71875 1.246094 -0.441406 1.371094 -0.3125 C 1.453125 -0.226562 1.632812 -0.171875 1.914062 -0.140625 L 1.914062 0 L 0.0859375 0 Z "/>
</g>
<g id="glyph-0-1">
<path d="M 0.199219 -1.761719 C 0.199219 -2.265625 0.359375 -2.691406 0.679688 -3.039062 C 1 -3.386719 1.410156 -3.5625 1.914062 -3.5625 C 2.414062 -3.5625 2.832031 -3.398438 3.160156 -3.070312 C 3.488281 -2.738281 3.652344 -2.300781 3.652344 -1.753906 C 3.652344 -1.25 3.492188 -0.8125 3.175781 -0.441406 C 2.855469 -0.0703125 2.441406 0.117188 1.9375 0.117188 C 1.449219 0.117188 1.039062 -0.0625 0.703125 -0.417969 C 0.367188 -0.773438 0.199219 -1.222656 0.199219 -1.761719 Z M 1.808594 -3.335938 C 1.609375 -3.335938 1.433594 -3.269531 1.289062 -3.136719 C 1.035156 -2.90625 0.90625 -2.507812 0.90625 -1.945312 C 0.90625 -1.492188 1.007812 -1.074219 1.214844 -0.683594 C 1.417969 -0.292969 1.699219 -0.0976562 2.0625 -0.0976562 C 2.347656 -0.0976562 2.5625 -0.230469 2.71875 -0.488281 C 2.871094 -0.75 2.945312 -1.09375 2.945312 -1.515625 C 2.945312 -1.953125 2.847656 -2.367188 2.65625 -2.753906 C 2.460938 -3.140625 2.175781 -3.335938 1.808594 -3.335938 Z "/>
</g>
<g id="glyph-0-2">
<path d="M 1.84375 -3.589844 C 2.027344 -3.589844 2.195312 -3.546875 2.351562 -3.46875 C 2.453125 -3.414062 2.550781 -3.339844 2.644531 -3.246094 L 2.644531 -4.453125 C 2.644531 -4.609375 2.625 -4.714844 2.59375 -4.773438 C 2.558594 -4.832031 2.476562 -4.859375 2.347656 -4.859375 C 2.316406 -4.859375 2.289062 -4.859375 2.265625 -4.855469 C 2.242188 -4.855469 2.195312 -4.847656 2.113281 -4.84375 L 2.113281 -4.96875 L 2.425781 -5.046875 C 2.539062 -5.078125 2.65625 -5.109375 2.769531 -5.140625 C 2.882812 -5.175781 2.980469 -5.207031 3.070312 -5.238281 C 3.109375 -5.25 3.175781 -5.273438 3.269531 -5.308594 L 3.292969 -5.300781 L 3.285156 -4.902344 C 3.28125 -4.757812 3.28125 -4.609375 3.277344 -4.457031 C 3.273438 -4.304688 3.273438 -4.152344 3.273438 -4.003906 L 3.265625 -0.898438 C 3.265625 -0.734375 3.285156 -0.621094 3.328125 -0.554688 C 3.367188 -0.488281 3.476562 -0.457031 3.648438 -0.457031 C 3.675781 -0.457031 3.707031 -0.457031 3.734375 -0.457031 C 3.761719 -0.457031 3.789062 -0.460938 3.816406 -0.46875 L 3.816406 -0.339844 C 3.800781 -0.335938 3.617188 -0.273438 3.265625 -0.152344 L 2.667969 0.0703125 L 2.644531 0.0390625 L 2.644531 -0.429688 C 2.5 -0.273438 2.378906 -0.164062 2.273438 -0.0976562 C 2.089844 0.015625 1.875 0.0703125 1.632812 0.0703125 C 1.203125 0.0703125 0.855469 -0.09375 0.585938 -0.425781 C 0.320312 -0.757812 0.1875 -1.144531 0.1875 -1.582031 C 0.1875 -2.132812 0.347656 -2.605469 0.667969 -3 C 0.988281 -3.390625 1.378906 -3.589844 1.84375 -3.589844 Z M 1.980469 -0.339844 C 2.179688 -0.339844 2.339844 -0.394531 2.460938 -0.511719 C 2.582031 -0.628906 2.644531 -0.738281 2.644531 -0.84375 L 2.644531 -2.472656 C 2.644531 -2.800781 2.554688 -3.035156 2.378906 -3.167969 C 2.203125 -3.304688 2.03125 -3.371094 1.863281 -3.371094 C 1.546875 -3.371094 1.296875 -3.230469 1.121094 -2.949219 C 0.941406 -2.667969 0.855469 -2.320312 0.855469 -1.90625 C 0.855469 -1.5 0.949219 -1.136719 1.136719 -0.816406 C 1.324219 -0.496094 1.609375 -0.339844 1.980469 -0.339844 Z "/>
</g>
<g id="glyph-0-3">
<path d="M 1.78125 -3.5625 C 2.136719 -3.5625 2.449219 -3.4375 2.71875 -3.191406 C 2.988281 -2.945312 3.121094 -2.59375 3.121094 -2.140625 L 0.710938 -2.140625 C 0.734375 -1.554688 0.867188 -1.125 1.109375 -0.859375 C 1.347656 -0.589844 1.632812 -0.457031 1.964844 -0.457031 C 2.230469 -0.457031 2.453125 -0.523438 2.636719 -0.664062 C 2.816406 -0.804688 2.984375 -1 3.140625 -1.257812 L 3.273438 -1.210938 C 3.167969 -0.890625 2.976562 -0.59375 2.691406 -0.320312 C 2.40625 -0.046875 2.058594 0.0898438 1.644531 0.0898438 C 1.167969 0.0898438 0.800781 -0.0898438 0.542969 -0.449219 C 0.28125 -0.808594 0.152344 -1.222656 0.152344 -1.691406 C 0.152344 -2.199219 0.300781 -2.636719 0.605469 -3.007812 C 0.90625 -3.378906 1.296875 -3.5625 1.78125 -3.5625 Z M 1.5625 -3.285156 C 1.273438 -3.285156 1.050781 -3.15625 0.898438 -2.902344 C 0.820312 -2.765625 0.761719 -2.59375 0.726562 -2.386719 L 2.328125 -2.386719 C 2.300781 -2.636719 2.25 -2.828125 2.183594 -2.949219 C 2.058594 -3.171875 1.851562 -3.285156 1.5625 -3.285156 Z "/>
</g>
<g id="glyph-0-4">
<path d="M 0.160156 -0.105469 C 0.394531 -0.128906 0.554688 -0.175781 0.636719 -0.25 C 0.722656 -0.320312 0.761719 -0.460938 0.761719 -0.671875 L 0.761719 -4.382812 C 0.761719 -4.550781 0.75 -4.664062 0.722656 -4.726562 C 0.671875 -4.832031 0.570312 -4.886719 0.414062 -4.886719 C 0.378906 -4.886719 0.339844 -4.882812 0.296875 -4.875 C 0.257812 -4.867188 0.203125 -4.855469 0.140625 -4.84375 L 0.140625 -4.96875 C 0.480469 -5.058594 0.894531 -5.179688 1.375 -5.332031 C 1.390625 -5.332031 1.402344 -5.324219 1.40625 -5.308594 C 1.410156 -5.292969 1.414062 -5.261719 1.414062 -5.210938 L 1.414062 -0.65625 C 1.414062 -0.4375 1.449219 -0.292969 1.527344 -0.230469 C 1.601562 -0.164062 1.757812 -0.125 1.996094 -0.105469 L 1.996094 0 L 0.160156 0 Z "/>
</g>
</g>
</defs>
<g fill="rgb(100%, 100%, 100%)" fill-opacity="1">
<use xlink:href="#glyph-0-0" x="30" y="25.833008"/>
<use xlink:href="#glyph-0-1" x="37" y="25.833008"/>
<use xlink:href="#glyph-0-2" x="41" y="25.833008"/>
<use xlink:href="#glyph-0-3" x="45" y="25.833008"/>
<use xlink:href="#glyph-0-4" x="48" y="25.833008"/>
</g>
</svg>
