<?xml version="1.0" encoding="UTF-8"?>
<svg xmlns="http://www.w3.org/2000/svg" xmlns:xlink="http://www.w3.org/1999/xlink" width="1280" height="720" viewBox="0 0 1280 720">
<defs>
<g>
<g id="glyph-0-0">
<path d="M 0.0429688 -0.0703125 C 0.203125 -0.0859375 0.308594 -0.125 0.351562 -0.179688 C 0.398438 -0.234375 0.421875 -0.367188 0.421875 -0.570312 L 0.421875 -2.152344 C 0.421875 -2.292969 0.398438 -2.382812 0.355469 -2.425781 C 0.3125 -2.46875 0.210938 -2.492188 0.0546875 -2.5 L 0.0546875 -2.574219 L 0.824219 -2.574219 L 1.722656 -0.613281 L 2.582031 -2.574219 L 3.359375 -2.574219 L 3.359375 -2.5 C 3.214844 -2.492188 3.121094 -2.464844 3.078125 -2.421875 C 3.035156 -2.378906 3.015625 -2.289062 3.015625 -2.152344 L 3.015625 -0.421875 C 3.015625 -0.28125 3.035156 -0.1875 3.078125 -0.148438 C 3.121094 -0.109375 3.214844 -0.0820312 3.359375 -0.0703125 L 3.359375 0 L 2.269531 0 L 2.269531 -0.0703125 C 2.425781 -0.0820312 2.523438 -0.109375 2.5625 -0.15625 C 2.601562 -0.199219 2.617188 -0.300781 2.617188 -0.46875 L 2.617188 -2.214844 L 1.625 0 L 1.570312 0 L 0.59375 -2.125 L 0.59375 -0.570312 C 0.59375 -0.359375 0.625 -0.21875 0.6875 -0.15625 C 0.726562 -0.113281 0.816406 -0.0859375 0.957031 -0.0703125 L 0.957031 0 L 0.0429688 0 Z "/>
</g>
<g id="glyph-0-1">
<path d="M 0.0625 -0.0703125 C 0.222656 -0.0820312 0.324219 -0.105469 0.371094 -0.140625 C 0.417969 -0.175781 0.441406 -0.269531 0.441406 -0.421875 L 0.441406 -2.152344 C 0.441406 -2.296875 0.417969 -2.386719 0.371094 -2.429688 C 0.324219 -2.46875 0.222656 -2.492188 0.0625 -2.5 L 0.0625 -2.574219 L 1.214844 -2.574219 L 1.214844 -2.5 C 1.054688 -2.492188 0.953125 -2.46875 0.90625 -2.429688 C 0.859375 -2.386719 0.835938 -2.292969 0.835938 -2.152344 L 0.835938 -0.421875 C 0.835938 -0.269531 0.859375 -0.175781 0.90625 -0.140625 C 0.953125 -0.105469 1.054688 -0.0820312 1.214844 -0.0703125 L 1.214844 0 L 0.0625 0 Z "/>
</g>
<g id="glyph-0-2">
<path d="M 0.800781 -0.300781 C 0.800781 -0.238281 0.816406 -0.195312 0.847656 -0.175781 C 0.878906 -0.15625 0.941406 -0.144531 1.039062 -0.144531 C 1.34375 -0.144531 1.59375 -0.203125 1.789062 -0.324219 C 2.089844 -0.507812 2.242188 -0.824219 2.242188 -1.273438 C 2.242188 -1.671875 2.117188 -1.972656 1.867188 -2.171875 C 1.65625 -2.34375 1.375 -2.429688 1.023438 -2.429688 C 0.9375 -2.429688 0.878906 -2.421875 0.847656 -2.402344 C 0.816406 -2.382812 0.800781 -2.339844 0.800781 -2.277344 Z M 0.0625 -0.0703125 C 0.203125 -0.0859375 0.296875 -0.109375 0.339844 -0.148438 C 0.382812 -0.183594 0.40625 -0.273438 0.40625 -0.421875 L 0.40625 -2.152344 C 0.40625 -2.292969 0.382812 -2.386719 0.34375 -2.425781 C 0.300781 -2.464844 0.207031 -2.492188 0.0625 -2.5 L 0.0625 -2.574219 L 1.109375 -2.574219 C 1.464844 -2.574219 1.761719 -2.515625 2.007812 -2.398438 C 2.449219 -2.191406 2.667969 -1.816406 2.667969 -1.277344 C 2.667969 -1.085938 2.628906 -0.898438 2.550781 -0.726562 C 2.472656 -0.550781 2.351562 -0.402344 2.191406 -0.28125 C 2.089844 -0.207031 1.984375 -0.148438 1.875 -0.109375 C 1.675781 -0.0351562 1.433594 0 1.144531 0 L 0.0625 0 Z "/>
</g>
<g id="glyph-0-3">
<rect x="0" y="0" width="0" height="0" mask="url(#mask-0)"/>
</g>
<g id="glyph-0-4">
<path d="M 0.179688 -0.976562 C 0.179688 -1.417969 0.308594 -1.804688 0.574219 -2.136719 C 0.734375 -2.339844 0.925781 -2.503906 1.148438 -2.628906 L 1.183594 -2.566406 C 0.980469 -2.402344 0.832031 -2.246094 0.746094 -2.09375 C 0.59375 -1.824219 0.515625 -1.46875 0.515625 -1.027344 C 0.515625 -0.695312 0.546875 -0.425781 0.605469 -0.210938 C 0.707031 0.164062 0.898438 0.445312 1.183594 0.628906 L 1.132812 0.691406 C 0.976562 0.617188 0.808594 0.472656 0.628906 0.253906 C 0.328125 -0.105469 0.179688 -0.515625 0.179688 -0.976562 Z "/>
</g>
<g id="glyph-0-5">
<path d="M 1.152344 -2.609375 C 1.15625 -2.601562 1.160156 -2.597656 1.160156 -2.59375 C 1.160156 -2.589844 1.160156 -2.585938 1.160156 -2.574219 L 1.160156 -0.285156 C 1.160156 -0.1875 1.1875 -0.128906 1.238281 -0.101562 C 1.289062 -0.0742188 1.386719 -0.0585938 1.527344 -0.0546875 L 1.527344 0 L 0.457031 0 L 0.457031 -0.0585938 C 0.609375 -0.0664062 0.710938 -0.0859375 0.757812 -0.121094 C 0.804688 -0.15625 0.828125 -0.226562 0.828125 -0.34375 L 0.828125 -2.101562 C 0.828125 -2.160156 0.820312 -2.207031 0.804688 -2.238281 C 0.789062 -2.269531 0.757812 -2.285156 0.707031 -2.285156 C 0.671875 -2.285156 0.632812 -2.277344 0.578125 -2.257812 C 0.527344 -2.242188 0.476562 -2.222656 0.429688 -2.203125 L 0.429688 -2.253906 L 1.128906 -2.609375 Z "/>
</g>
<g id="glyph-0-6">
<path d="M 1.746094 -2.574219 L 1.746094 -2.511719 L 0.921875 0.0351562 L 0.671875 0.0351562 L 1.441406 -2.285156 L 0.613281 -2.285156 C 0.488281 -2.285156 0.402344 -2.265625 0.347656 -2.226562 C 0.292969 -2.1875 0.226562 -2.101562 0.140625 -1.972656 L 0.0742188 -2 C 0.15625 -2.203125 0.210938 -2.328125 0.230469 -2.375 C 0.25 -2.421875 0.273438 -2.488281 0.304688 -2.574219 Z "/>
</g>
<g id="glyph-0-7">
<path d="M 1.105469 -0.957031 C 1.105469 -0.769531 1.082031 -0.589844 1.03125 -0.421875 C 0.984375 -0.253906 0.910156 -0.09375 0.816406 0.0546875 C 0.714844 0.214844 0.582031 0.363281 0.414062 0.5 C 0.304688 0.59375 0.214844 0.65625 0.136719 0.691406 L 0.101562 0.628906 C 0.296875 0.480469 0.441406 0.332031 0.53125 0.175781 C 0.691406 -0.0976562 0.769531 -0.457031 0.769531 -0.90625 C 0.769531 -1.269531 0.734375 -1.566406 0.660156 -1.796875 C 0.558594 -2.125 0.371094 -2.378906 0.101562 -2.566406 L 0.152344 -2.628906 C 0.351562 -2.515625 0.539062 -2.347656 0.710938 -2.125 C 0.976562 -1.777344 1.105469 -1.386719 1.105469 -0.957031 Z "/>
</g>
</g>
<image id="source-182" x="0" y="0" width="0" height="0"/>
<mask id="mask-0">
<use xlink:href="#source-182"/>
</mask>
</defs>
<g fill="rgb(96.862745%, 85.098039%, 43.529412%)" fill-opacity="1">
<use xlink:href="#glyph-0-0" x="30" y="22.916992"/>
<use xlink:href="#glyph-0-1" x="33" y="22.916992"/>
<use xlink:href="#glyph-0-2" x="34" y="22.916992"/>
<use xlink:href="#glyph-0-3" x="37" y="22.916992"/>
<use xlink:href="#glyph-0-4" x="38" y="22.916992"/>
<use xlink:href="#glyph-0-5" x="39" y="22.916992"/>
<use xlink:href="#glyph-0-6" x="41" y="22.916992"/>
<use xlink:href="#glyph-0-7" x="43" y="22.916992"/>
</g>
</svg>
