<?xml version="1.0" encoding="UTF-8"?>
<svg xmlns="http://www.w3.org/2000/svg" xmlns:xlink="http://www.w3.org/1999/xlink" width="1280" height="720" viewBox="0 0 1280 720">
<defs>
<g>
<g id="glyph-0-0">
<path d="M 0.121094 -0.0820312 C 0.332031 -0.09375 0.46875 -0.132812 0.535156 -0.203125 C 0.601562 -0.269531 0.636719 -0.414062 0.636719 -0.636719 L 0.636719 -2.550781 L 0.125 -2.550781 L 0.125 -2.75 L 0.636719 -2.75 C 0.636719 -3.066406 0.679688 -3.332031 0.765625 -3.546875 C 0.925781 -3.964844 1.226562 -4.171875 1.660156 -4.171875 C 1.835938 -4.171875 1.992188 -4.136719 2.132812 -4.066406 C 2.269531 -3.996094 2.339844 -3.902344 2.339844 -3.785156 C 2.339844 -3.71875 2.316406 -3.660156 2.265625 -3.609375 C 2.21875 -3.558594 2.160156 -3.53125 2.09375 -3.53125 C 2.035156 -3.53125 1.988281 -3.550781 1.945312 -3.585938 C 1.902344 -3.621094 1.855469 -3.679688 1.796875 -3.769531 L 1.746094 -3.847656 C 1.71875 -3.886719 1.683594 -3.921875 1.648438 -3.953125 C 1.609375 -3.980469 1.554688 -3.996094 1.488281 -3.996094 C 1.335938 -3.996094 1.234375 -3.921875 1.179688 -3.769531 C 1.152344 -3.691406 1.136719 -3.585938 1.136719 -3.457031 L 1.136719 -2.75 L 1.886719 -2.75 L 1.886719 -2.550781 L 1.144531 -2.550781 L 1.144531 -0.636719 C 1.144531 -0.410156 1.171875 -0.265625 1.234375 -0.203125 C 1.292969 -0.140625 1.453125 -0.101562 1.710938 -0.0820312 L 1.710938 0 L 0.121094 0 Z "/>
</g>
<g id="glyph-0-1">
<path d="M 0.28125 -1.535156 C 0.28125 -2.226562 0.488281 -2.832031 0.902344 -3.355469 C 1.15625 -3.675781 1.457031 -3.933594 1.800781 -4.128906 L 1.859375 -4.03125 C 1.539062 -3.777344 1.308594 -3.527344 1.171875 -3.289062 C 0.933594 -2.867188 0.8125 -2.308594 0.8125 -1.609375 C 0.8125 -1.09375 0.855469 -0.667969 0.949219 -0.332031 C 1.109375 0.257812 1.414062 0.699219 1.859375 0.992188 L 1.78125 1.089844 C 1.535156 0.972656 1.273438 0.742188 0.988281 0.398438 C 0.515625 -0.167969 0.28125 -0.8125 0.28125 -1.535156 Z "/>
</g>
<g id="glyph-0-2">
<path d="M 1.414062 -2.742188 L 1.414062 -2.660156 C 1.339844 -2.65625 1.273438 -2.644531 1.222656 -2.628906 C 1.167969 -2.609375 1.144531 -2.570312 1.144531 -2.507812 C 1.144531 -2.472656 1.195312 -2.363281 1.300781 -2.191406 C 1.355469 -2.097656 1.425781 -1.984375 1.511719 -1.851562 C 1.628906 -2.011719 1.71875 -2.140625 1.773438 -2.230469 C 1.871094 -2.378906 1.921875 -2.472656 1.921875 -2.519531 C 1.921875 -2.570312 1.902344 -2.605469 1.859375 -2.621094 C 1.816406 -2.640625 1.757812 -2.652344 1.683594 -2.660156 L 1.683594 -2.742188 L 2.644531 -2.742188 L 2.644531 -2.660156 C 2.542969 -2.652344 2.449219 -2.625 2.359375 -2.578125 C 2.273438 -2.53125 2.203125 -2.46875 2.148438 -2.390625 L 1.636719 -1.652344 L 2.425781 -0.460938 C 2.527344 -0.304688 2.613281 -0.203125 2.683594 -0.15625 C 2.753906 -0.113281 2.835938 -0.0859375 2.925781 -0.0820312 L 2.925781 0 L 1.695312 0 L 1.695312 -0.0820312 L 1.78125 -0.0898438 C 1.828125 -0.09375 1.863281 -0.105469 1.894531 -0.132812 C 1.925781 -0.15625 1.941406 -0.183594 1.941406 -0.222656 C 1.941406 -0.257812 1.90625 -0.34375 1.828125 -0.472656 C 1.792969 -0.535156 1.738281 -0.621094 1.667969 -0.730469 C 1.632812 -0.785156 1.582031 -0.859375 1.515625 -0.953125 C 1.449219 -1.050781 1.394531 -1.132812 1.347656 -1.199219 L 0.867188 -0.449219 C 0.808594 -0.359375 0.773438 -0.300781 0.761719 -0.273438 C 0.746094 -0.242188 0.738281 -0.21875 0.738281 -0.195312 C 0.738281 -0.160156 0.753906 -0.132812 0.785156 -0.121094 C 0.816406 -0.109375 0.882812 -0.0976562 0.988281 -0.0820312 L 0.988281 0 L 0.105469 0 L 0.105469 -0.0820312 C 0.210938 -0.105469 0.292969 -0.132812 0.34375 -0.167969 C 0.394531 -0.203125 0.464844 -0.28125 0.550781 -0.402344 L 1.246094 -1.414062 L 0.671875 -2.28125 C 0.554688 -2.457031 0.476562 -2.558594 0.433594 -2.589844 C 0.390625 -2.621094 0.292969 -2.644531 0.144531 -2.660156 L 0.144531 -2.742188 Z "/>
</g>
<g id="glyph-0-3">
<path d="M 1.738281 -1.503906 C 1.738281 -1.207031 1.699219 -0.925781 1.625 -0.664062 C 1.546875 -0.398438 1.433594 -0.148438 1.28125 0.0859375 C 1.125 0.335938 0.914062 0.570312 0.652344 0.789062 C 0.480469 0.929688 0.335938 1.03125 0.21875 1.089844 L 0.160156 0.992188 C 0.46875 0.757812 0.691406 0.519531 0.832031 0.277344 C 1.082031 -0.152344 1.207031 -0.71875 1.207031 -1.425781 C 1.207031 -1.996094 1.152344 -2.464844 1.035156 -2.824219 C 0.875 -3.335938 0.582031 -3.738281 0.160156 -4.03125 L 0.238281 -4.128906 C 0.554688 -3.953125 0.84375 -3.691406 1.117188 -3.335938 C 1.53125 -2.789062 1.738281 -2.179688 1.738281 -1.503906 Z "/>
</g>
<g id="glyph-0-4">
<rect x="0" y="0" width="0" height="0" mask="url(#mask-0)"/>
</g>
<g id="glyph-0-5">
<path d="M 3.265625 -1.136719 L 3.265625 -0.71875 L 0.183594 -0.71875 L 0.183594 -1.136719 Z M 3.265625 -2.367188 L 3.265625 -1.953125 L 0.183594 -1.953125 L 0.183594 -2.367188 Z "/>
</g>
<g id="glyph-0-6">
<path d="M 1.460938 -0.109375 C 1.753906 -0.109375 1.957031 -0.269531 2.066406 -0.589844 C 2.175781 -0.910156 2.230469 -1.375 2.230469 -1.980469 C 2.230469 -2.464844 2.195312 -2.851562 2.128906 -3.140625 C 2.007812 -3.675781 1.777344 -3.945312 1.4375 -3.945312 C 1.101562 -3.945312 0.867188 -3.667969 0.742188 -3.113281 C 0.675781 -2.820312 0.644531 -2.433594 0.644531 -1.953125 C 0.644531 -1.5 0.679688 -1.140625 0.746094 -0.867188 C 0.875 -0.363281 1.113281 -0.109375 1.460938 -0.109375 Z M 1.453125 -4.105469 C 1.910156 -4.105469 2.265625 -3.867188 2.519531 -3.386719 C 2.71875 -3 2.820312 -2.554688 2.820312 -2.050781 C 2.820312 -1.652344 2.757812 -1.28125 2.632812 -0.929688 C 2.402344 -0.273438 2 0.0585938 1.425781 0.0585938 C 1.035156 0.0585938 0.710938 -0.121094 0.460938 -0.476562 C 0.1875 -0.855469 0.0546875 -1.375 0.0546875 -2.027344 C 0.0546875 -2.539062 0.144531 -2.980469 0.324219 -3.351562 C 0.570312 -3.855469 0.945312 -4.105469 1.453125 -4.105469 Z "/>
</g>
<g id="glyph-0-7">
<path d="M 0.996094 0.0703125 C 0.902344 0.0703125 0.820312 0.0390625 0.753906 -0.0273438 C 0.6875 -0.09375 0.65625 -0.175781 0.65625 -0.269531 C 0.65625 -0.363281 0.691406 -0.441406 0.757812 -0.507812 C 0.824219 -0.574219 0.902344 -0.605469 0.996094 -0.605469 C 1.089844 -0.605469 1.167969 -0.574219 1.234375 -0.507812 C 1.300781 -0.441406 1.332031 -0.363281 1.332031 -0.269531 C 1.332031 -0.175781 1.300781 -0.09375 1.238281 -0.0273438 C 1.171875 0.0390625 1.09375 0.0703125 0.996094 0.0703125 Z "/>
</g>
<g id="glyph-0-8">
<path d="M 0.183594 -0.0703125 C 0.910156 -0.824219 1.402344 -1.378906 1.664062 -1.734375 C 1.925781 -2.085938 2.054688 -2.433594 2.054688 -2.769531 C 2.054688 -3.0625 1.976562 -3.289062 1.816406 -3.441406 C 1.65625 -3.59375 1.46875 -3.671875 1.246094 -3.671875 C 0.972656 -3.671875 0.753906 -3.574219 0.585938 -3.375 C 0.492188 -3.265625 0.402344 -3.097656 0.316406 -2.871094 L 0.1875 -2.898438 C 0.289062 -3.355469 0.457031 -3.671875 0.695312 -3.851562 C 0.933594 -4.027344 1.1875 -4.117188 1.457031 -4.117188 C 1.792969 -4.117188 2.066406 -4.011719 2.273438 -3.800781 C 2.480469 -3.589844 2.585938 -3.328125 2.585938 -3.023438 C 2.585938 -2.695312 2.472656 -2.382812 2.25 -2.078125 C 2.023438 -1.777344 1.535156 -1.238281 0.785156 -0.464844 L 2.152344 -0.464844 C 2.34375 -0.464844 2.480469 -0.488281 2.558594 -0.535156 C 2.636719 -0.582031 2.722656 -0.691406 2.820312 -0.867188 L 2.898438 -0.832031 L 2.566406 0 L 0.183594 0 Z "/>
</g>
<g id="glyph-0-9">
<path d="M 0.457031 -0.546875 C 0.570312 -0.546875 0.71875 -0.480469 0.902344 -0.355469 C 1.085938 -0.226562 1.226562 -0.160156 1.328125 -0.160156 C 1.554688 -0.160156 1.757812 -0.261719 1.925781 -0.464844 C 2.097656 -0.667969 2.183594 -0.914062 2.183594 -1.207031 C 2.183594 -1.722656 1.910156 -2.09375 1.359375 -2.320312 C 1.054688 -2.445312 0.773438 -2.507812 0.511719 -2.507812 C 0.46875 -2.507812 0.4375 -2.511719 0.429688 -2.511719 C 0.417969 -2.515625 0.402344 -2.527344 0.386719 -2.546875 C 0.390625 -2.5625 0.394531 -2.574219 0.398438 -2.585938 C 0.402344 -2.597656 0.40625 -2.605469 0.410156 -2.617188 L 1.058594 -4.042969 L 2.339844 -4.042969 C 2.402344 -4.042969 2.453125 -4.054688 2.488281 -4.074219 C 2.523438 -4.097656 2.566406 -4.136719 2.621094 -4.199219 L 2.671875 -4.15625 L 2.4375 -3.605469 C 2.429688 -3.585938 2.40625 -3.574219 2.371094 -3.570312 C 2.335938 -3.566406 2.296875 -3.5625 2.253906 -3.5625 L 1.101562 -3.5625 L 0.847656 -3.039062 C 1.171875 -2.984375 1.414062 -2.933594 1.5625 -2.882812 C 1.8125 -2.796875 2.019531 -2.675781 2.1875 -2.511719 C 2.332031 -2.371094 2.4375 -2.210938 2.511719 -2.035156 C 2.585938 -1.859375 2.621094 -1.671875 2.621094 -1.476562 C 2.621094 -1.039062 2.464844 -0.671875 2.152344 -0.375 C 1.839844 -0.0820312 1.441406 0.0664062 0.964844 0.0664062 C 0.769531 0.0664062 0.613281 0.046875 0.492188 0.0078125 C 0.292969 -0.0546875 0.195312 -0.164062 0.195312 -0.320312 C 0.195312 -0.382812 0.214844 -0.433594 0.257812 -0.480469 C 0.300781 -0.523438 0.367188 -0.546875 0.457031 -0.546875 Z "/>
</g>
<g id="glyph-0-10">
<path d="M 0.0273438 -1.636719 C 0.539062 -2.132812 0.871094 -2.476562 1.023438 -2.664062 C 1.175781 -2.855469 1.25 -3.054688 1.25 -3.261719 C 1.25 -3.425781 1.195312 -3.558594 1.082031 -3.65625 C 0.96875 -3.757812 0.847656 -3.808594 0.714844 -3.808594 C 0.550781 -3.808594 0.421875 -3.753906 0.320312 -3.644531 C 0.257812 -3.582031 0.191406 -3.476562 0.125 -3.324219 L 0.0195312 -3.351562 C 0.0664062 -3.582031 0.167969 -3.765625 0.320312 -3.898438 C 0.476562 -4.03125 0.65625 -4.097656 0.859375 -4.097656 C 1.066406 -4.097656 1.238281 -4.035156 1.378906 -3.902344 C 1.519531 -3.769531 1.589844 -3.613281 1.589844 -3.429688 C 1.589844 -3.238281 1.539062 -3.054688 1.433594 -2.882812 C 1.328125 -2.710938 1.117188 -2.488281 0.804688 -2.210938 L 0.445312 -1.859375 C 0.503906 -1.859375 0.597656 -1.859375 0.722656 -1.855469 C 0.847656 -1.855469 0.941406 -1.851562 1 -1.851562 C 1.269531 -1.851562 1.433594 -1.863281 1.496094 -1.882812 C 1.554688 -1.90625 1.625 -1.980469 1.703125 -2.105469 L 1.773438 -2.078125 L 1.574219 -1.574219 L 0.0273438 -1.574219 Z "/>
</g>
<g id="glyph-0-11">
<path d="M 1.519531 -3.089844 L 1.9375 -3.089844 L 1.9375 -1.75 L 3.265625 -1.75 L 3.265625 -1.332031 L 1.9375 -1.332031 L 1.9375 0 L 1.519531 0 L 1.519531 -1.332031 L 0.183594 -1.332031 L 0.183594 -1.75 L 1.519531 -1.75 Z "/>
</g>
</g>
<image id="source-70" x="0" y="0" width="0" height="0"/>
<mask id="mask-0">
<use xlink:href="#source-70"/>
</mask>
</defs>
<g fill="rgb(96.862745%, 85.098039%, 43.529412%)" fill-opacity="1">
<use xlink:href="#glyph-0-0" x="30" y="24.583008"/>
<use xlink:href="#glyph-0-1" x="32" y="24.583008"/>
<use xlink:href="#glyph-0-2" x="34" y="24.583008"/>
<use xlink:href="#glyph-0-3" x="37" y="24.583008"/>
<use xlink:href="#glyph-0-4" x="39" y="24.583008"/>
<use xlink:href="#glyph-0-5" x="41" y="24.583008"/>
<use xlink:href="#glyph-0-4" x="44" y="24.583008"/>
<use xlink:href="#glyph-0-6" x="46" y="24.583008"/>
<use xlink:href="#glyph-0-7" x="49" y="24.583008"/>
<use xlink:href="#glyph-0-8" x="51" y="24.583008"/>
<use xlink:href="#glyph-0-9" x="54" y="24.583008"/>
<use xlink:href="#glyph-0-2" x="57" y="24.583008"/>
<use xlink:href="#glyph-0-10" x="60" y="24.583008"/>
<use xlink:href="#glyph-0-4" x="62" y="24.583008"/>
<use xlink:href="#glyph-0-11" x="64" y="24.583008"/>
<use xlink:href="#glyph-0-4" x="67" y="24.583008"/>
<use xlink:href="#glyph-0-6" x="69" y="24.583008"/>
<use xlink:href="#glyph-0-7" x="72" y="24.583008"/>
<use xlink:href="#glyph-0-9" x="74" y="24.583008"/>
</g>
</svg>
