<?xml version="1.0" encoding="UTF-8"?>
<svg xmlns="http://www.w3.org/2000/svg" xmlns:xlink="http://www.w3.org/1999/xlink" width="1280" height="720" viewBox="0 0 1280 720">
<defs>
<g>
<g id="glyph-0-0">
<path d="M 1.195312 -2.519531 L 1.195312 -2.4375 C 1.101562 -2.425781 1.03125 -2.410156 0.996094 -2.394531 C 0.957031 -2.375 0.9375 -2.335938 0.9375 -2.273438 C 0.9375 -2.246094 0.941406 -2.214844 0.949219 -2.191406 C 0.957031 -2.164062 0.96875 -2.125 0.988281 -2.074219 L 1.554688 -0.671875 L 2.042969 -1.914062 C 2.066406 -1.972656 2.089844 -2.039062 2.109375 -2.101562 C 2.128906 -2.167969 2.140625 -2.21875 2.140625 -2.25 C 2.140625 -2.320312 2.105469 -2.371094 2.039062 -2.402344 C 2 -2.417969 1.945312 -2.429688 1.878906 -2.4375 L 1.878906 -2.519531 L 2.648438 -2.519531 L 2.648438 -2.4375 C 2.558594 -2.429688 2.496094 -2.398438 2.457031 -2.347656 C 2.417969 -2.296875 2.359375 -2.175781 2.285156 -1.992188 L 1.503906 -0.0390625 C 1.488281 -0.00390625 1.476562 0.0195312 1.46875 0.03125 C 1.457031 0.0429688 1.445312 0.0507812 1.429688 0.0507812 C 1.410156 0.0507812 1.394531 0.0429688 1.382812 0.0195312 C 1.371094 0 1.355469 -0.0273438 1.34375 -0.0585938 L 0.511719 -2.042969 C 0.445312 -2.203125 0.375 -2.3125 0.296875 -2.371094 C 0.253906 -2.402344 0.1875 -2.425781 0.101562 -2.4375 L 0.101562 -2.519531 Z "/>
</g>
<g id="glyph-0-1">
<path d="M 1.285156 -2.492188 L 1.285156 -2.417969 C 1.21875 -2.414062 1.160156 -2.40625 1.109375 -2.386719 C 1.0625 -2.371094 1.039062 -2.335938 1.039062 -2.28125 C 1.039062 -2.246094 1.085938 -2.148438 1.183594 -1.992188 C 1.234375 -1.910156 1.296875 -1.804688 1.375 -1.683594 C 1.480469 -1.832031 1.5625 -1.945312 1.613281 -2.027344 C 1.703125 -2.164062 1.746094 -2.25 1.746094 -2.289062 C 1.746094 -2.335938 1.726562 -2.367188 1.691406 -2.382812 C 1.652344 -2.398438 1.597656 -2.410156 1.53125 -2.417969 L 1.53125 -2.492188 L 2.402344 -2.492188 L 2.402344 -2.417969 C 2.3125 -2.410156 2.226562 -2.386719 2.144531 -2.34375 C 2.066406 -2.300781 2.003906 -2.242188 1.953125 -2.171875 L 1.488281 -1.503906 L 2.207031 -0.417969 C 2.296875 -0.277344 2.375 -0.183594 2.441406 -0.144531 C 2.503906 -0.101562 2.578125 -0.078125 2.660156 -0.0742188 L 2.660156 0 L 1.539062 0 L 1.539062 -0.0742188 L 1.621094 -0.0820312 C 1.660156 -0.0859375 1.695312 -0.0976562 1.722656 -0.121094 C 1.75 -0.140625 1.765625 -0.167969 1.765625 -0.199219 C 1.765625 -0.234375 1.730469 -0.3125 1.664062 -0.429688 C 1.628906 -0.488281 1.582031 -0.566406 1.515625 -0.664062 C 1.484375 -0.714844 1.441406 -0.78125 1.378906 -0.867188 C 1.320312 -0.953125 1.269531 -1.027344 1.226562 -1.089844 L 0.789062 -0.410156 C 0.738281 -0.328125 0.703125 -0.273438 0.691406 -0.246094 C 0.679688 -0.21875 0.671875 -0.195312 0.671875 -0.179688 C 0.671875 -0.144531 0.6875 -0.121094 0.714844 -0.109375 C 0.742188 -0.101562 0.804688 -0.0898438 0.898438 -0.0742188 L 0.898438 0 L 0.09375 0 L 0.09375 -0.0742188 C 0.191406 -0.09375 0.265625 -0.121094 0.3125 -0.152344 C 0.359375 -0.183594 0.421875 -0.253906 0.5 -0.367188 L 1.132812 -1.285156 L 0.609375 -2.074219 C 0.503906 -2.230469 0.433594 -2.324219 0.394531 -2.355469 C 0.355469 -2.382812 0.265625 -2.40625 0.132812 -2.417969 L 0.132812 -2.492188 Z "/>
</g>
<g id="glyph-1-0">
<path d="M 1.160156 0.863281 C 0.898438 0.863281 0.6875 0.746094 0.527344 0.511719 C 0.363281 0.277344 0.28125 -0.0273438 0.28125 -0.402344 C 0.28125 -0.78125 0.363281 -1.085938 0.527344 -1.320312 C 0.6875 -1.550781 0.902344 -1.664062 1.171875 -1.664062 C 1.4375 -1.664062 1.648438 -1.550781 1.8125 -1.320312 C 1.976562 -1.085938 2.058594 -0.78125 2.058594 -0.40625 C 2.058594 -0.0195312 1.976562 0.285156 1.8125 0.515625 C 1.648438 0.746094 1.433594 0.863281 1.160156 0.863281 Z M 1.164062 0.589844 C 1.476562 0.589844 1.632812 0.257812 1.632812 -0.414062 C 1.632812 -1.066406 1.476562 -1.394531 1.167969 -1.394531 C 0.863281 -1.394531 0.707031 -1.0625 0.707031 -0.402344 C 0.707031 0.261719 0.859375 0.589844 1.164062 0.589844 Z "/>
</g>
</g>
</defs>
<g fill="rgb(34.509804%, 76.862745%, 86.666667%)" fill-opacity="1">
<use xlink:href="#glyph-0-0" x="30" y="25.371094"/>
</g>
<g fill="rgb(34.509804%, 76.862745%, 86.666667%)" fill-opacity="1">
<use xlink:href="#glyph-1-0" x="33" y="25.371094"/>
</g>
<g fill="rgb(34.509804%, 76.862745%, 86.666667%)" fill-opacity="1">
<use xlink:href="#glyph-0-1" x="35" y="25.371094"/>
</g>
</svg>
