<?xml version="1.0" encoding="UTF-8"?>
<svg xmlns="http://www.w3.org/2000/svg" xmlns:xlink="http://www.w3.org/1999/xlink" width="1280" height="720" viewBox="0 0 1280 720">
<defs>
<g>
<g id="glyph-0-0">
<path d="M 0.0742188 -0.121094 C 0.351562 -0.148438 0.527344 -0.210938 0.605469 -0.308594 C 0.683594 -0.40625 0.722656 -0.628906 0.722656 -0.980469 L 0.722656 -3.6875 C 0.722656 -3.929688 0.683594 -4.085938 0.609375 -4.160156 C 0.53125 -4.230469 0.359375 -4.273438 0.0898438 -4.289062 L 0.0898438 -4.410156 L 1.410156 -4.410156 L 2.953125 -1.046875 L 4.425781 -4.410156 L 5.753906 -4.410156 L 5.753906 -4.289062 C 5.507812 -4.269531 5.347656 -4.226562 5.277344 -4.152344 C 5.207031 -4.078125 5.167969 -3.925781 5.167969 -3.6875 L 5.167969 -0.722656 C 5.167969 -0.480469 5.207031 -0.324219 5.277344 -0.253906 C 5.347656 -0.1875 5.507812 -0.140625 5.753906 -0.121094 L 5.753906 0 L 3.886719 0 L 3.886719 -0.121094 C 4.15625 -0.140625 4.324219 -0.191406 4.390625 -0.265625 C 4.457031 -0.339844 4.488281 -0.519531 4.488281 -0.800781 L 4.488281 -3.796875 L 2.785156 0 L 2.691406 0 L 1.015625 -3.640625 L 1.015625 -0.980469 C 1.015625 -0.617188 1.070312 -0.378906 1.175781 -0.265625 C 1.246094 -0.195312 1.398438 -0.148438 1.640625 -0.121094 L 1.640625 0 L 0.0742188 0 Z "/>
</g>
<g id="glyph-0-1">
<path d="M 0.546875 -4.203125 C 0.546875 -4.296875 0.578125 -4.375 0.644531 -4.445312 C 0.710938 -4.511719 0.789062 -4.542969 0.886719 -4.542969 C 0.980469 -4.542969 1.058594 -4.511719 1.125 -4.445312 C 1.191406 -4.378906 1.222656 -4.296875 1.222656 -4.203125 C 1.222656 -4.109375 1.191406 -4.03125 1.125 -3.964844 C 1.058594 -3.898438 0.980469 -3.863281 0.886719 -3.863281 C 0.789062 -3.863281 0.710938 -3.898438 0.644531 -3.964844 C 0.578125 -4.03125 0.546875 -4.109375 0.546875 -4.203125 Z M 0.128906 -0.0898438 C 0.363281 -0.113281 0.507812 -0.152344 0.570312 -0.210938 C 0.628906 -0.269531 0.660156 -0.421875 0.660156 -0.675781 L 0.660156 -2.230469 C 0.660156 -2.371094 0.652344 -2.46875 0.632812 -2.523438 C 0.597656 -2.613281 0.53125 -2.65625 0.425781 -2.65625 C 0.402344 -2.65625 0.378906 -2.652344 0.355469 -2.648438 C 0.332031 -2.644531 0.269531 -2.628906 0.160156 -2.597656 L 0.160156 -2.699219 L 0.300781 -2.746094 C 0.679688 -2.867188 0.945312 -2.960938 1.09375 -3.023438 C 1.15625 -3.050781 1.195312 -3.0625 1.210938 -3.0625 C 1.214844 -3.046875 1.21875 -3.03125 1.21875 -3.015625 L 1.21875 -0.675781 C 1.21875 -0.429688 1.246094 -0.273438 1.308594 -0.210938 C 1.367188 -0.148438 1.5 -0.109375 1.710938 -0.0898438 L 1.710938 0 L 0.128906 0 Z "/>
</g>
<g id="glyph-0-2">
<path d="M 0.03125 -0.109375 C 0.230469 -0.125 0.363281 -0.160156 0.425781 -0.214844 C 0.492188 -0.265625 0.523438 -0.378906 0.523438 -0.554688 L 0.523438 -2.023438 C 0.523438 -2.238281 0.503906 -2.390625 0.464844 -2.480469 C 0.425781 -2.574219 0.351562 -2.621094 0.246094 -2.621094 C 0.222656 -2.621094 0.195312 -2.617188 0.15625 -2.613281 C 0.121094 -2.605469 0.0859375 -2.601562 0.046875 -2.589844 L 0.046875 -2.699219 C 0.167969 -2.742188 0.296875 -2.785156 0.425781 -2.832031 C 0.554688 -2.878906 0.648438 -2.910156 0.695312 -2.929688 C 0.804688 -2.972656 0.917969 -3.019531 1.03125 -3.070312 C 1.046875 -3.070312 1.054688 -3.0625 1.058594 -3.054688 C 1.0625 -3.042969 1.066406 -3.019531 1.066406 -2.984375 L 1.066406 -2.453125 C 1.203125 -2.644531 1.335938 -2.796875 1.464844 -2.902344 C 1.59375 -3.011719 1.730469 -3.066406 1.867188 -3.066406 C 1.980469 -3.066406 2.070312 -3.035156 2.140625 -2.96875 C 2.207031 -2.902344 2.242188 -2.816406 2.242188 -2.71875 C 2.242188 -2.628906 2.214844 -2.554688 2.164062 -2.492188 C 2.109375 -2.433594 2.042969 -2.402344 1.964844 -2.402344 C 1.882812 -2.402344 1.796875 -2.441406 1.714844 -2.515625 C 1.628906 -2.59375 1.566406 -2.628906 1.515625 -2.628906 C 1.441406 -2.628906 1.347656 -2.570312 1.238281 -2.445312 C 1.125 -2.324219 1.070312 -2.199219 1.070312 -2.066406 L 1.070312 -0.597656 C 1.070312 -0.410156 1.113281 -0.28125 1.203125 -0.210938 C 1.289062 -0.136719 1.433594 -0.101562 1.632812 -0.109375 L 1.632812 0 L 0.03125 0 Z "/>
</g>
<g id="glyph-0-3">
<path d="M 0.167969 -1.511719 C 0.167969 -1.941406 0.304688 -2.308594 0.582031 -2.605469 C 0.855469 -2.902344 1.207031 -3.054688 1.640625 -3.054688 C 2.070312 -3.054688 2.425781 -2.914062 2.707031 -2.628906 C 2.988281 -2.347656 3.132812 -1.972656 3.132812 -1.503906 C 3.132812 -1.070312 2.996094 -0.695312 2.722656 -0.378906 C 2.449219 -0.0585938 2.09375 0.101562 1.660156 0.101562 C 1.242188 0.101562 0.890625 -0.0507812 0.601562 -0.359375 C 0.3125 -0.664062 0.167969 -1.046875 0.167969 -1.511719 Z M 1.550781 -2.859375 C 1.378906 -2.859375 1.230469 -2.800781 1.105469 -2.6875 C 0.886719 -2.492188 0.777344 -2.152344 0.777344 -1.667969 C 0.777344 -1.28125 0.867188 -0.921875 1.039062 -0.585938 C 1.214844 -0.25 1.457031 -0.0859375 1.769531 -0.0859375 C 2.011719 -0.0859375 2.199219 -0.195312 2.328125 -0.421875 C 2.460938 -0.644531 2.527344 -0.9375 2.527344 -1.300781 C 2.527344 -1.675781 2.441406 -2.027344 2.277344 -2.359375 C 2.109375 -2.691406 1.867188 -2.859375 1.550781 -2.859375 Z "/>
</g>
</g>
</defs>
<g fill="rgb(100%, 100%, 100%)" fill-opacity="1">
<use xlink:href="#glyph-0-0" x="30" y="25"/>
<use xlink:href="#glyph-0-1" x="36" y="25"/>
<use xlink:href="#glyph-0-2" x="38" y="25"/>
<use xlink:href="#glyph-0-2" x="40" y="25"/>
<use xlink:href="#glyph-0-3" x="42" y="25"/>
<use xlink:href="#glyph-0-2" x="45" y="25"/>
</g>
</svg>
