<?xml version="1.0" encoding="UTF-8"?>
<svg xmlns="http://www.w3.org/2000/svg" xmlns:xlink="http://www.w3.org/1999/xlink" width="1280" height="720" viewBox="0 0 1280 720">
<defs>
<g>
<g id="glyph-0-0">
<path d="M 0.0976562 -0.0703125 C 0.269531 -0.078125 0.382812 -0.109375 0.4375 -0.164062 C 0.492188 -0.21875 0.519531 -0.339844 0.519531 -0.519531 L 0.519531 -2.085938 L 0.101562 -2.085938 L 0.101562 -2.25 L 0.519531 -2.25 C 0.519531 -2.507812 0.554688 -2.726562 0.625 -2.902344 C 0.757812 -3.242188 1.003906 -3.414062 1.359375 -3.414062 C 1.503906 -3.414062 1.632812 -3.382812 1.746094 -3.328125 C 1.859375 -3.269531 1.914062 -3.195312 1.914062 -3.097656 C 1.914062 -3.042969 1.894531 -2.996094 1.855469 -2.953125 C 1.816406 -2.910156 1.769531 -2.890625 1.714844 -2.890625 C 1.667969 -2.890625 1.625 -2.90625 1.59375 -2.933594 C 1.558594 -2.960938 1.515625 -3.011719 1.46875 -3.082031 L 1.429688 -3.148438 C 1.40625 -3.179688 1.378906 -3.210938 1.347656 -3.234375 C 1.316406 -3.257812 1.273438 -3.269531 1.21875 -3.269531 C 1.09375 -3.269531 1.011719 -3.207031 0.96875 -3.085938 C 0.941406 -3.019531 0.929688 -2.933594 0.929688 -2.828125 L 0.929688 -2.25 L 1.542969 -2.25 L 1.542969 -2.085938 L 0.933594 -2.085938 L 0.933594 -0.519531 C 0.933594 -0.335938 0.960938 -0.21875 1.007812 -0.167969 C 1.058594 -0.117188 1.1875 -0.0820312 1.398438 -0.0703125 L 1.398438 0 L 0.0976562 0 Z "/>
</g>
<g id="glyph-0-1">
<path d="M 0.230469 -1.253906 C 0.230469 -1.820312 0.398438 -2.320312 0.738281 -2.746094 C 0.945312 -3.007812 1.191406 -3.21875 1.476562 -3.378906 L 1.519531 -3.296875 C 1.257812 -3.089844 1.070312 -2.886719 0.960938 -2.691406 C 0.761719 -2.347656 0.664062 -1.890625 0.664062 -1.320312 C 0.664062 -0.894531 0.703125 -0.546875 0.777344 -0.269531 C 0.910156 0.210938 1.15625 0.570312 1.519531 0.8125 L 1.457031 0.890625 C 1.257812 0.796875 1.039062 0.605469 0.808594 0.328125 C 0.421875 -0.136719 0.230469 -0.664062 0.230469 -1.253906 Z "/>
</g>
<g id="glyph-0-2">
<path d="M 1.15625 -2.242188 L 1.15625 -2.175781 C 1.09375 -2.171875 1.042969 -2.164062 1 -2.148438 C 0.957031 -2.132812 0.933594 -2.101562 0.933594 -2.054688 C 0.933594 -2.023438 0.976562 -1.933594 1.0625 -1.792969 C 1.109375 -1.71875 1.167969 -1.625 1.238281 -1.515625 C 1.335938 -1.648438 1.40625 -1.75 1.453125 -1.828125 C 1.53125 -1.945312 1.570312 -2.023438 1.570312 -2.0625 C 1.570312 -2.101562 1.554688 -2.132812 1.519531 -2.144531 C 1.484375 -2.160156 1.4375 -2.171875 1.375 -2.175781 L 1.375 -2.242188 L 2.164062 -2.242188 L 2.164062 -2.175781 C 2.082031 -2.167969 2.003906 -2.144531 1.929688 -2.109375 C 1.859375 -2.070312 1.800781 -2.019531 1.757812 -1.957031 L 1.339844 -1.351562 L 1.984375 -0.375 C 2.066406 -0.25 2.136719 -0.167969 2.195312 -0.128906 C 2.253906 -0.09375 2.320312 -0.0703125 2.394531 -0.0703125 L 2.394531 0 L 1.386719 0 L 1.386719 -0.0703125 L 1.457031 -0.0742188 C 1.496094 -0.078125 1.527344 -0.0859375 1.550781 -0.109375 C 1.578125 -0.128906 1.589844 -0.152344 1.589844 -0.179688 C 1.589844 -0.210938 1.558594 -0.28125 1.496094 -0.386719 C 1.46875 -0.4375 1.421875 -0.507812 1.363281 -0.597656 C 1.335938 -0.640625 1.296875 -0.703125 1.242188 -0.78125 C 1.1875 -0.859375 1.140625 -0.925781 1.101562 -0.980469 L 0.710938 -0.367188 C 0.664062 -0.296875 0.632812 -0.246094 0.621094 -0.222656 C 0.609375 -0.199219 0.605469 -0.175781 0.605469 -0.160156 C 0.605469 -0.128906 0.617188 -0.109375 0.644531 -0.101562 C 0.667969 -0.0898438 0.722656 -0.078125 0.808594 -0.0703125 L 0.808594 0 L 0.0859375 0 L 0.0859375 -0.0703125 C 0.171875 -0.0859375 0.238281 -0.109375 0.28125 -0.136719 C 0.324219 -0.164062 0.378906 -0.230469 0.449219 -0.328125 L 1.019531 -1.15625 L 0.550781 -1.867188 C 0.457031 -2.007812 0.390625 -2.09375 0.355469 -2.117188 C 0.320312 -2.144531 0.238281 -2.164062 0.121094 -2.175781 L 0.121094 -2.242188 Z "/>
</g>
<g id="glyph-0-3">
<path d="M 1.421875 -1.230469 C 1.421875 -0.988281 1.390625 -0.757812 1.328125 -0.542969 C 1.265625 -0.324219 1.171875 -0.121094 1.050781 0.0703125 C 0.921875 0.277344 0.75 0.46875 0.535156 0.644531 C 0.394531 0.761719 0.273438 0.84375 0.179688 0.890625 L 0.132812 0.8125 C 0.382812 0.621094 0.566406 0.425781 0.679688 0.226562 C 0.886719 -0.125 0.988281 -0.589844 0.988281 -1.167969 C 0.988281 -1.632812 0.941406 -2.015625 0.847656 -2.3125 C 0.714844 -2.730469 0.476562 -3.058594 0.132812 -3.296875 L 0.195312 -3.378906 C 0.453125 -3.234375 0.691406 -3.019531 0.914062 -2.730469 C 1.253906 -2.285156 1.421875 -1.785156 1.421875 -1.230469 Z "/>
</g>
</g>
</defs>
<g fill="rgb(100%, 100%, 100%)" fill-opacity="1">
<use xlink:href="#glyph-0-0" x="30" y="23.75"/>
<use xlink:href="#glyph-0-1" x="32" y="23.75"/>
<use xlink:href="#glyph-0-2" x="34" y="23.75"/>
<use xlink:href="#glyph-0-3" x="37" y="23.75"/>
</g>
</svg>
